<svg xmlns="http://www.w3.org/2000/svg" viewBox="0 0 1000 375.5" style="enable-background:new 0 0 1000 375.5" xml:space="preserve"><radialGradient id="a" cx="748.934" cy="497.872" r="158.989" fx="750.372" fy="374.067" gradientTransform="matrix(1 0 0 -.743 -2.91 551.332)" gradientUnits="userSpaceOnUse"><stop offset="0" style="stop-color:#f2f2f2"/><stop offset=".976" style="stop-color:#f2f2f2;stop-opacity:.1"/><stop offset="1" style="stop-color:#f2f2f2;stop-opacity:0"/></radialGradient><path d="M765.9 0c13.9.1 27.9 0 41.8 0v128h-41.8c0-42.6-.1-85.3 0-128m92.4 144.5c38.3-39.5 76.1-79.5 114.4-119 9.8 10.4 19.9 20.4 29.5 31-37.8 39.9-76.1 79.3-113.9 119.1-10.2-10.2-20-20.7-30-31.1M125.4 121c10.5-2.5 21.3-3.9 32.2-3.5 35.9-.9 70.8 18 93 47 10.6 13.7 18.3 29.8 22.6 46.9-16.5.1-32.9 0-49.3 0-7.2-15-18.4-28.4-32.8-36.3-8-4.5-16.8-7.6-25.8-8.7-8.4-.2-17-.9-25.3 1.3-13.9 3.1-26.8 10.7-36.6 21.4-12.8 12.6-21.4 30.2-22.2 48.7-1.6 17.6 1.6 36 11.2 50.8 9.2 14.2 22.3 26 37.8 32.1 25.9 10 57.3 4 77.2-16.4 6.7-7.1 12.5-15.2 16.7-24.1 16.4-.1 32.7-.1 49.1 0-4.1 18.1-12.9 34.8-24.1 49.1-7.7 8.3-15.2 17.1-24.6 23.3-42.3 30.4-103.8 28.7-143.5-5.7-12.4-11-23.7-23.6-31.4-38.6-14.3-26.5-17.9-58.4-12.8-88.1 4.3-25.2 16.9-48.3 34.4-66.1 14.6-15.8 33.4-27.9 54.2-33.1m172.8-3.5h46.9v257.8h-46.9V117.5m141.7 51.4c8.9-1.9 18-.8 27-1.1 10.4.9 20.9 2.5 30.8 6.2 9.9 3.6 20.2 8.1 27.1 16.7 8.2 10.1 11.1 23.6 11.7 36.6v148.2c-15.9-.1-31.7.3-47.6-.2-.2-6.7.1-13.4-.1-20.2-13.8 12.4-32.1 18.1-49.9 19.6-11.3 2-23 .2-33.7-3.6-13.9-4.8-25.3-16.8-29.4-31.5-4.4-15.7-3.5-32.8 1.7-48.1 5.6-15.6 19.2-26.7 34.1-31.8 19.1-7 39.5-8.1 59.3-12.2 6.8 0 13.6-4.4 16.1-11.1 1.8-7.3.2-16.5-5.9-21.1-6.8-4.7-15.1-5.6-23-5.9-7.1.2-14.5.3-20.8 4.2-8.1 4.8-11.8 14.4-13.4 23.5-15.7-.3-31.4 0-47.1-.3 2-16.1 5.2-33.3 16.3-45.5 11.4-14.3 29.4-21 46.8-22.4m34.6 111.4c-9.3 2.2-18.4 5.1-27.8 6.6-7.5 1.5-15.4 4.1-20.7 10.1-7.4 9.1-8 23.2-2.2 33.4 2.5 4.7 7.5 7 12.1 8.6 14.9 3 31.2-1.8 42.1-13 11.1-14.5 9.2-34.2 9.1-51.6-4.5 1.5-8.1 5.1-12.6 5.9m173.7-105.6c9.7-2.5 19.2-6.6 29.3-5.6.1 16.7 1 33.4.6 50.1-8.6-1.2-17.7-2.2-26.1.4-18.3 5.3-33.6 22.1-35.7 42.1-.1 4.4-1.3 8.7-1.3 13.1v100.6c-15.6 0-31.2.1-46.8-.1-.2-66 0-132 .1-198.1 15.1-.1 30.2.4 45.3 1 0 8.1-.2 16.3.1 24.5 8.9-12.2 20.5-22.9 34.5-28m116.8-5.1c7-.7 14-1.4 21-.8 42.1.6 80.4 34.4 90.5 76.6 8.7 34.5.2 74.3-24.8 99.3-14.5 16.3-34.4 27.4-55.4 30.7-10.2.1-20.3 0-30.5 0-30.3-4.5-56.7-26.1-71.7-53.4-15.6-30-15.6-68.1-.4-98.3 14.5-27.8 40.9-49.6 71.3-54.1m3.8 48.9c-14 3.3-25.9 13.6-33.1 26.4-10.7 18.7-9 44.2 4.3 61 13.5 20.3 41.3 27.2 62.6 16.8 12.4-5.8 21.8-17.2 27-30.1 5.8-14.8 4.8-32.2-2.2-46.3-7.3-14.3-20.8-25.6-36.3-28.2-7.4-.6-14.9-.9-22.3.4m140.4 7.4h125.3v43.4c-41.7-.1-83.5.1-125.2 0-.1-14.4 0-28.9-.1-43.4z" style="fill:red" transform="translate(-34.456)"/></svg>